<svg width="44" height="44" viewBox="0 0 44 44" fill="none" xmlns="http://www.w3.org/2000/svg">
<rect width="43.6893" height="43.6893" rx="21.8447" fill="url(#paint0_linear_1020_96)"/>
<path d="M21.8482 11.1003C25.3504 11.1003 25.7615 11.116 27.1457 11.1784C28.4259 11.2356 29.118 11.449 29.5811 11.6311C30.1952 11.8705 30.6323 12.1515 31.0902 12.6095C31.5482 13.0674 31.8344 13.5045 32.0686 14.1186C32.2455 14.5817 32.4641 15.2738 32.5213 16.554C32.5837 17.9382 32.5994 18.3493 32.5994 21.8515C32.5994 25.3537 32.5837 25.7648 32.5213 27.1491C32.4641 28.4292 32.2507 29.1213 32.0686 29.5845C31.8292 30.1985 31.5482 30.6356 31.0902 31.0936C30.6323 31.5515 30.1952 31.8377 29.5811 32.0719C29.118 32.2488 28.4259 32.4674 27.1457 32.5246C25.7615 32.5871 25.3504 32.6027 21.8482 32.6027C18.346 32.6027 17.9349 32.5871 16.5506 32.5246C15.2705 32.4674 14.5784 32.254 14.1152 32.0719C13.5012 31.8325 13.064 31.5515 12.6061 31.0936C12.1482 30.6356 11.8619 30.1985 11.6278 29.5845C11.4508 29.1213 11.2323 28.4292 11.175 27.1491C11.1126 25.7648 11.097 25.3537 11.097 21.8515C11.097 18.3493 11.1126 17.9382 11.175 16.554C11.2323 15.2738 11.4456 14.5817 11.6278 14.1186C11.8671 13.5045 12.1482 13.0674 12.6061 12.6095C13.064 12.1515 13.5012 11.8653 14.1152 11.6311C14.5784 11.4542 15.2705 11.2356 16.5506 11.1784C17.9349 11.1108 18.3512 11.1003 21.8482 11.1003ZM21.8482 8.73779C18.2887 8.73779 17.8412 8.7534 16.4413 8.81585C15.0467 8.8783 14.0944 9.10206 13.2618 9.4247C12.3979 9.75775 11.6694 10.2105 10.9409 10.939C10.2123 11.6676 9.76479 12.4013 9.42653 13.2599C9.10389 14.0926 8.88013 15.0449 8.81768 16.4447C8.75524 17.8393 8.73962 18.2869 8.73962 21.8463C8.73962 25.4058 8.75524 25.8533 8.81768 27.2531C8.88013 28.6478 9.10389 29.6001 9.42653 30.4379C9.75958 31.3017 10.2123 32.0303 10.9409 32.7588C11.6694 33.4874 12.4031 33.9349 13.2618 34.2731C14.0944 34.5958 15.0467 34.8195 16.4466 34.882C17.8464 34.9444 18.2887 34.9601 21.8534 34.9601C25.418 34.9601 25.8603 34.9444 27.2602 34.882C28.6548 34.8195 29.6071 34.5958 30.445 34.2731C31.3088 33.9401 32.0373 33.4874 32.7659 32.7588C33.4944 32.0303 33.9419 31.2965 34.2802 30.4379C34.6028 29.6053 34.8266 28.653 34.8891 27.2531C34.9515 25.8533 34.9671 25.411 34.9671 21.8463C34.9671 18.2817 34.9515 17.8393 34.8891 16.4395C34.8266 15.0449 34.6028 14.0926 34.2802 13.2547C33.9472 12.3909 33.4944 11.6624 32.7659 10.9338C32.0373 10.2053 31.3036 9.75775 30.445 9.4195C29.6123 9.09686 28.66 8.87309 27.2602 8.81065C25.8551 8.7534 25.4076 8.73779 21.8482 8.73779Z" fill="white"/>
<path d="M21.8482 15.1177C18.1326 15.1177 15.1144 18.1307 15.1144 21.8515C15.1144 25.5722 18.1274 28.5853 21.8482 28.5853C25.5689 28.5853 28.582 25.5722 28.582 21.8515C28.582 18.1307 25.5689 15.1177 21.8482 15.1177ZM21.8482 26.2175C19.4336 26.2175 17.4769 24.2609 17.4769 21.8463C17.4769 19.4317 19.4336 17.475 21.8482 17.475C24.2628 17.475 26.2194 19.4317 26.2194 21.8463C26.2194 24.2609 24.2628 26.2175 21.8482 26.2175Z" fill="white"/>
<path d="M28.8473 16.4185C29.7153 16.4185 30.4189 15.7149 30.4189 14.847C30.4189 13.979 29.7153 13.2754 28.8473 13.2754C27.9794 13.2754 27.2758 13.979 27.2758 14.847C27.2758 15.7149 27.9794 16.4185 28.8473 16.4185Z" fill="white"/>
<defs>
<linearGradient id="paint0_linear_1020_96" x1="21.8447" y1="0" x2="21.8447" y2="43.6893" gradientUnits="userSpaceOnUse">
<stop stop-color="#FF850A" stop-opacity="0.7"/>
<stop offset="1" stop-color="#FF850A"/>
</linearGradient>
</defs>
</svg>
