<svg width="44" height="44" viewBox="0 0 44 44" fill="none" xmlns="http://www.w3.org/2000/svg">
<rect x="0.155273" width="43.6893" height="43.6893" rx="21.8447" fill="url(#paint0_linear_1020_97)"/>
<path d="M32.2407 9.83008H11.7592C11.2887 9.83008 10.8375 10.017 10.5049 10.3496C10.1722 10.6823 9.98535 11.1334 9.98535 11.6039V32.0854C9.98535 32.5558 10.1722 33.007 10.5049 33.3397C10.8375 33.6723 11.2887 33.8592 11.7592 33.8592H32.2407C32.7111 33.8592 33.1623 33.6723 33.4949 33.3397C33.8276 33.007 34.0145 32.5558 34.0145 32.0854V11.6039C34.0145 11.1334 33.8276 10.6823 33.4949 10.3496C33.1623 10.017 32.7111 9.83008 32.2407 9.83008ZM17.1474 30.2999H13.5347V18.8243H17.1474V30.2999ZM15.3385 17.2341C14.9287 17.2317 14.5288 17.1081 14.1892 16.8787C13.8496 16.6493 13.5856 16.3245 13.4304 15.9452C13.2753 15.5659 13.2359 15.1491 13.3174 14.7475C13.3989 14.3459 13.5975 13.9774 13.8882 13.6885C14.1789 13.3997 14.5487 13.2034 14.9508 13.1245C15.353 13.0456 15.7695 13.0876 16.1478 13.2452C16.5261 13.4028 16.8492 13.6689 17.0764 14.01C17.3036 14.351 17.4247 14.7517 17.4244 15.1615C17.4282 15.4359 17.3768 15.7082 17.2732 15.9623C17.1696 16.2164 17.0159 16.447 16.8212 16.6404C16.6266 16.8338 16.395 16.986 16.1402 17.088C15.8855 17.19 15.6128 17.2397 15.3385 17.2341ZM30.4635 30.3099H26.8525V24.0406C26.8525 22.1917 26.0665 21.621 25.0519 21.621C23.9807 21.621 22.9294 22.4287 22.9294 24.0874V30.3099H19.3167V18.8327H22.7909V20.4229H22.8376C23.1864 19.7171 24.4078 18.5106 26.2718 18.5106C28.2875 18.5106 30.4652 19.7071 30.4652 23.2113L30.4635 30.3099Z" fill="white"/>
<defs>
<linearGradient id="paint0_linear_1020_97" x1="21.9999" y1="0" x2="21.9999" y2="43.6893" gradientUnits="userSpaceOnUse">
<stop stop-color="#FF850A" stop-opacity="0.7"/>
<stop offset="1" stop-color="#FF850A"/>
</linearGradient>
</defs>
</svg>
