<svg width="44" height="44" viewBox="0 0 44 44" fill="none" xmlns="http://www.w3.org/2000/svg">
<rect x="0.310669" width="43.6893" height="43.6893" rx="21.8447" fill="url(#paint0_linear_1020_98)"/>
<path d="M8.90466 34.5535L10.7777 27.7519C9.61972 25.7555 9.01224 23.4945 9.01857 21.1832C9.01857 13.9407 14.9415 8.05225 22.2122 8.05225C25.7432 8.05225 29.059 9.41888 31.5459 11.9002C34.0391 14.3816 35.4122 17.6816 35.4059 21.1895C35.4059 28.432 29.483 34.3205 22.2059 34.3205H22.1996C19.9911 34.3205 17.8207 33.7663 15.8907 32.7209L8.90466 34.5535ZM16.226 30.3466L16.6247 30.5859C18.3079 31.5809 20.2379 32.1037 22.2059 32.11H22.2122C28.2554 32.11 33.1785 27.2165 33.1785 21.1958C33.1785 18.2799 32.0395 15.5404 29.9702 13.4747C27.901 11.409 25.1421 10.2754 22.2122 10.2754C16.1691 10.2691 11.246 15.1625 11.246 21.1832C11.246 23.2426 11.8218 25.2516 12.9229 26.9898L13.1823 27.4055L12.0749 31.4298L16.226 30.3466Z" fill="white"/>
<path d="M9.36658 34.094L11.1764 27.5254C10.0563 25.6045 9.46782 23.4192 9.46782 21.1897C9.47415 14.1992 15.1882 8.51221 22.2122 8.51221C25.623 8.51221 28.8185 9.83475 31.2231 12.2279C33.6278 14.6211 34.9503 17.8078 34.9503 21.196C34.9503 28.1866 29.2299 33.8736 22.2122 33.8736H22.2059C20.0734 33.8736 17.9789 33.3383 16.1184 32.3306L9.36658 34.094Z" fill="url(#paint1_linear_1020_98)"/>
<path d="M8.90466 34.5535L10.7777 27.7519C9.61972 25.7555 9.01224 23.4945 9.01857 21.1832C9.01857 13.9407 14.9415 8.05225 22.2122 8.05225C25.7432 8.05225 29.059 9.41888 31.5459 11.9002C34.0391 14.3816 35.4122 17.6816 35.4059 21.1895C35.4059 28.432 29.483 34.3205 22.2059 34.3205H22.1996C19.9911 34.3205 17.8207 33.7663 15.8907 32.7209L8.90466 34.5535ZM16.226 30.3466L16.6247 30.5859C18.3079 31.5809 20.2379 32.1037 22.2059 32.11H22.2122C28.2554 32.11 33.1785 27.2165 33.1785 21.1958C33.1785 18.2799 32.0395 15.5404 29.9702 13.4747C27.901 11.409 25.1421 10.2754 22.2122 10.2754C16.1691 10.2691 11.246 15.1625 11.246 21.1832C11.246 23.2426 11.8218 25.2516 12.9229 26.9898L13.1823 27.4055L12.0749 31.4298L16.226 30.3466Z" fill="url(#paint2_linear_1020_98)"/>
<path fill-rule="evenodd" clip-rule="evenodd" d="M18.9153 15.6918C18.6685 15.1438 18.409 15.1312 18.1749 15.125C17.9851 15.1187 17.7636 15.1187 17.5421 15.1187C17.3206 15.1187 16.9663 15.2005 16.6625 15.528C16.3588 15.8555 15.5109 16.649 15.5109 18.2676C15.5109 19.8798 16.6942 21.4417 16.8587 21.6621C17.0232 21.8825 19.1431 25.3022 22.4905 26.6185C25.2748 27.7143 25.8443 27.4939 26.4455 27.4372C27.0466 27.3805 28.3945 26.6437 28.6729 25.8753C28.945 25.107 28.945 24.452 28.8627 24.3135C28.7805 24.1749 28.559 24.0931 28.2299 23.9293C27.9009 23.7656 26.281 22.972 25.9772 22.8587C25.6735 22.7516 25.452 22.6949 25.2368 23.0224C25.0154 23.3499 24.3826 24.0868 24.1927 24.3072C24.0029 24.5276 23.8067 24.5528 23.4777 24.3891C23.1486 24.2253 22.0856 23.8789 20.8263 22.7579C19.8455 21.8888 19.181 20.8119 18.9912 20.4844C18.8014 20.1569 18.9722 19.9806 19.1368 19.8168C19.2823 19.672 19.4658 19.4327 19.6303 19.2437C19.7949 19.0548 19.8518 18.9162 19.9594 18.6958C20.067 18.4754 20.0163 18.2865 19.9341 18.1227C19.8518 17.9653 19.2064 16.3404 18.9153 15.6918Z" fill="white"/>
<defs>
<linearGradient id="paint0_linear_1020_98" x1="22.1542" y1="43.6871" x2="22.1542" y2="-0.00152858" gradientUnits="userSpaceOnUse">
<stop stop-color="#FF850A"/>
<stop offset="1" stop-color="#FF850A" stop-opacity="0.7"/>
</linearGradient>
<linearGradient id="paint1_linear_1020_98" x1="22.1578" y1="34.0927" x2="22.1578" y2="8.51131" gradientUnits="userSpaceOnUse">
<stop stop-color="#FF850A"/>
<stop offset="1" stop-color="#FF850A" stop-opacity="0.7"/>
</linearGradient>
<linearGradient id="paint2_linear_1020_98" x1="22.1579" y1="34.551" x2="22.1579" y2="8.05225" gradientUnits="userSpaceOnUse">
<stop stop-color="#F9F9F9"/>
<stop offset="1" stop-color="white"/>
</linearGradient>
</defs>
</svg>
